<svg xmlns="http://www.w3.org/2000/svg" viewBox="0 0 384 116">
  <g>
    <g>
      <path d="M52.388,47.706l-33.5-27.713L46.026,1.881" fill="#5b9996"/>
      <path d="M52.388,47.706,27.039,84.922,1.988,72.648l16.9-52.754" fill="#558c89"/>
      <path d="M82.012,79.973,27.138,84.922l42.746,18.805" fill="#91c6c4"/>
      <path d="M82.012,79.973,27.138,84.922,52.786,47.311" fill="#74afad"/>
      <path d="M82.012,79.973,52.786,47.311l18.887-29.2" fill="#91c6c4"/>
      <path d="M69.983,103.826,50.6,113.031l-26.045.989L9.444,99.867,27.138,85.02" fill="#74afad"/>
      <path d="M9.444,99.768,1.988,72.648l25.15,12.274" fill="#558c89"/>
      <path d="M52.388,47.706,45.927,1.98,71.773,18.014" fill="#74afad"/>
      <path d="M84,79.973v-.4L73.761,18.014v-.4a1.587,1.587,0,0,0-.994-1.287L47.02.2h-.6a.194.194,0,0,0-.2-.2h-.994s-.3,0-.4.2L17.794,18.311c-.2,0-.2.2-.3.2l-.2.2v.2c-.2,0-.2,0-.2.2L0,72.055v1.088l7.654,27.021v.4a.2.2,0,0,1,.2.2.194.194,0,0,0,.2.2l15.11,14.45a2.153,2.153,0,0,0,1.392.594l26.244-.99h.8l19.285-9.5a.316.316,0,0,0,.3-.3l.3-.3.2-.2L83.6,80.765v-.4c0-.2.2-.2.2-.3Zm-14.911,21.28L57.16,96.106l-22.268-9.9,43.74-3.959-9.643,19.1ZM10.438,96.3,5.169,76.41l13.42,6.334,4.971,2.474-.7.594L10.637,96.205Zm9.543-72.847,7.953,6.731L49.605,48.2,26.542,82.348l-15.11-7.324L4.473,71.56Zm25.846-9.2,3.977,28.7L29.524,25.932l-6.958-5.939L44.436,5.444l1.292,8.908ZM31.015,82.645l21.87-32.068L77.737,78.488ZM55.172,47.014,70.381,23.556,78.93,73.44,55.37,47.113Zm-1.79-4.751L48.412,6.038,68.791,18.9ZM49.9,111.348l-24.852.99L12.128,100.065,27.536,87.3l37.775,16.826L50.1,111.249Z" fill="#fff"/>
    </g>
    <path d="M120,31V94h7V67h30V60H127V38h33V31Zm50,0V94h35V88H177V31Zm92.5,0H255L235,65,214.5,31.2H207l24,41.3V94h8V72.5l23.4-41.3Zm9.5,0V94h8V43l37.5,51h7.4V31H317V82.2L280,31Zm63,0v7h21V94h7V38h21V31H335Z" fill-rule="evenodd"/>
  </g>
</svg>
