<svg xmlns="http://www.w3.org/2000/svg" viewBox="0 0 385 118" preserveAspectRatio="xMinYMid"><g fill="none" fill-rule="evenodd"><g fill-rule="nonzero"><path fill="#5B9996" d="M53 49L19.3 21 46.6 2.7"/><path fill="#558C89" d="M53 49L27.5 86.6 2.3 74.2l17-53.3"/><path fill="#91C6C4" d="M82.8 81.6l-55.2 5 43 19"/><path fill="#74AFAD" d="M82.8 81.6l-55.2 5 25.8-38"/><path fill="#91C6C4" d="M82.8 81.6l-29.4-33 19-29.5"/><path fill="#74AFAD" d="M70.7 105.7L51.2 115 25 116 9.8 101.7l17.8-15"/><path fill="#558C89" d="M9.8 101.6L2.3 74.2l25.3 12.4"/><path fill="#74AFAD" d="M53 49L46.5 2.8l26 16.2"/><path fill="#FFF" d="M84.8 81.6v-.4L74.5 19v-.4c0-.5-.4-1-1-1.3L47.6 1H47s0-.2-.2-.2h-1s-.3 0-.4.2L18.2 19.3c-.2 0-.2.2-.3.2l-.2.2v.2c-.2 0-.2 0-.2.2L.3 73.6v1.1L8 102v.4s.2 0 .2.2c0 0 0 .2.2.2l15.2 14.6c.4.4 1 .6 1.4.6l26.4-1h.8l19.4-9.6c.2 0 .3-.2.3-.3l.3-.3.2-.2 12-24.2v-.4c0-.2.2-.2.2-.3zm-15 21.5l-12-5.2-22.4-10 44-4-9.7 19.3zm-59-5L5.5 78 19 84.4l5 2.5-.7.6L11 98zm9.6-73.6l8 6.8 21.8 18.2L27 84l-15.2-7.4-7-3.5 15.6-48.6zm26-9.3l4 29L30 27l-7-6L45 6.3l1.3 9zM31.5 84.3l22-32.4 25 28.2-47 4.2zm24.3-36l15.3-23.7L79.7 75 56 48.4zM54 43.5l-5-36.6 20.5 13-15.5 23.6zm-3.5 69.8l-25 1-13-12.4L28 89l38 17-15.3 7.2z"/></g><path fill="#000" d="M120 31v63h7.2V67h29.5v-6.6h-29.5V37.8h33V31H120zm50.7 0v63h34.8v-6.5H178V31h-7.3zm92.8 0H256l-20 33.2-20.5-33H208l24.4 41.3V94h7V72.4l24-41.2zm10 0v63h7.2V43l37.8 51h7.4V31h-7.3v51.4L281 31h-7.5zm63 0V38H357V94h7.2V38h20.6V31h-48.3z"/></g></svg>
