<svg width="46" height="45" viewBox="0 0 46 45" xmlns="http://www.w3.org/2000/svg"><path d="M5.44 10.91A5.45 5.45 0 1 0 5.46 0 5.39 5.39 0 0 0 0 5.45c0 3.2 2.6 5.49 5.44 5.46M.74 29.94v14.63c0 .33.07.43.41.43h8.59c.46 0 .46 0 .46-.47V15.36c0-.35-.08-.46-.44-.46H1.2c-.47 0-.47.01-.47.5v14.54m24.22-11V15.3c.01-.33-.1-.4-.4-.4l-8.21-.01c-.37 0-.45.13-.45.46.02 1.23.01 2.45.01 3.67v25.45c0 .51 0 .51.52.51h8.37c.55 0 .56 0 .56-.54V30.52c0-1.39.01-2.77.36-4.12.37-1.44 1.05-2.66 2.44-3.36 1-.5 2.08-.6 3.19-.54 1.7.1 2.94.85 3.62 2.44.5 1.16.67 2.4.68 3.64.02 5.33.01 10.66 0 15.99 0 .33.1.43.43.43h8.49c.55 0 .55 0 .55-.55 0-4.75.02-9.5-.01-14.25-.01-1.83-.1-3.67-.2-5.5a15.53 15.53 0 0 0-.84-4.25c-.9-2.57-2.5-4.5-5.1-5.46-2.16-.8-4.38-1-6.66-.72a9.93 9.93 0 0 0-7.35 4.66" fill="#FFF" fill-rule="evenodd"/></svg>
