<svg xmlns="http://www.w3.org/2000/svg" width="34" height="35"><g fill="currentColor" fill-rule="evenodd" stroke="currentColor" stroke-width=".684"><path d="M15.067 30c-3.718.019-7.29-1.495-9.929-4.207-2.64-2.712-4.127-6.4-4.138-10.25C.988 11.69 2.457 7.993 5.08 5.266 7.705 2.54 11.27 1.004 14.987 1 18.704.996 22.27 2.524 24.9 5.247c2.627 2.722 4.104 6.417 4.1 10.266.001 3.834-1.465 7.51-4.077 10.225-2.612 2.716-6.156 4.248-9.856 4.261zm0-26.192c-3-.02-5.885 1.199-8.017 3.386-2.133 2.186-3.337 5.16-3.35 8.268-.012 3.108 1.17 6.092 3.285 8.297 2.114 2.204 4.99 3.447 7.99 3.454 3 .007 5.88-1.222 8.004-3.417 2.125-2.195 3.32-5.174 3.32-8.282.006-3.094-1.173-6.064-3.28-8.259-2.104-2.195-4.965-3.435-7.952-3.447z"/><path d="M31.471 34L24 26.536 25.529 25 33 32.461z"/></g></svg>
