<?xml version="1.0" encoding="UTF-8"?>
<svg width="16px" height="10px" viewBox="0 0 16 10" version="1.1" xmlns="http://www.w3.org/2000/svg" xmlns:xlink="http://www.w3.org/1999/xlink">
    <!-- Generator: Sketch 55.2 (78181) - https://sketchapp.com -->
    <title>chevron-sprite</title>
    <desc>Created with Sketch.</desc>
    <g id="Page-1" stroke="none" stroke-width="1" fill="none" fill-rule="evenodd">
        <g id="chevron-right" fill-rule="nonzero">
            <g id="chevron-sprite">
                <path d="M3.58578644,5 L0.292893219,8.29289322 C-0.0976310729,8.68341751 -0.0976310729,9.31658249 0.292893219,9.70710678 C0.683417511,10.0976311 1.31658249,10.0976311 1.70710678,9.70710678 L5.70710678,5.70710678 C6.09763107,5.31658249 6.09763107,4.68341751 5.70710678,4.29289322 L1.70710678,0.292893219 C1.31658249,-0.0976310729 0.683417511,-0.0976310729 0.292893219,0.292893219 C-0.0976310729,0.683417511 -0.0976310729,1.31658249 0.292893219,1.70710678 L3.58578644,5 Z" id="Path" fill="#F96417"></path>
                <path d="M13.5857864,5 L10.2928932,8.29289322 C9.90236893,8.68341751 9.90236893,9.31658249 10.2928932,9.70710678 C10.6834175,10.0976311 11.3165825,10.0976311 11.7071068,9.70710678 L15.7071068,5.70710678 C16.0976311,5.31658249 16.0976311,4.68341751 15.7071068,4.29289322 L11.7071068,0.292893219 C11.3165825,-0.0976310729 10.6834175,-0.0976310729 10.2928932,0.292893219 C9.90236893,0.683417511 9.90236893,1.31658249 10.2928932,1.70710678 L13.5857864,5 Z" id="Path" fill="#091A41"></path>
            </g>
        </g>
    </g>
</svg>