<svg width="134" height="48" viewBox="0 0 134 48" fill="none" xmlns="http://www.w3.org/2000/svg"><path fill-rule="evenodd" clip-rule="evenodd" d="M40.964 14h14v3h-11v8h9v3h-9v6h-3V14zm21 0h-3v20h14v-3h-11V14zm15 0h-3l7 11v9h3v-9l7-11h-3l-5.5 8.643-5.5-8.643zm18 20V14h3l12 16V14h3v20h-3l-12-16v16h-3zm22-20h17v3h-7v17h-3V17h-7v-3z" fill="#252525"/><path fill-rule="evenodd" clip-rule="evenodd" d="M12.561.877L5.57 14.862l6.551 6.551 1.855-.741L12.561.877zM5.097 15.805L.023 25.953l8.685 4.342 2.72-8.16-6.33-6.33zM.374 27.246L3 36l9.306 7.445-3.721-12.093-8.211-4.106zM13.42 43.664l9.184-7.347-.04-.07-8.284-14.62-1.88.751-2.875 8.628 3.895 12.658zm9.779-8.327l2.8-9.337L13.586 1.17l1.405 19.682L23.2 35.337z" fill="#2D46EB"/></svg>
