<svg xmlns="http://www.w3.org/2000/svg" xml:space="preserve" version="1.1" viewBox="0 0 142 44"><style>.st0{fill:hsl(0,0%,19%,1)}.st1{fill:#006be6}</style><path d="M101.8 33V11h3.6L116 27.8V11h3.6v22h-3.3l-10.9-16.2V33h-3.6zM131.8 33V14.3h-6.7V11H142v3.3h-6.5V33h-3.7zM43.8 33V11h13.8v3.1H47.5v7.2h8.9v3h-8.9V33h-3.7zM63.1 33V11h3.7v18.9h10.1V33H63.1zM85.2 33v-8.7L77.8 11h3.9L87 21.2 92.3 11h4l-7.4 13.4V33h-3.7z" class="st0"/><path d="M6.5 13.6c-.1.2-.2.3-.3.5-1.5 2.7-5 8.9-6.2 11l10.4 5.7 3.6-12-7.5-5.2zM16 0c-1.6 2.3-5.8 8.3-8.4 12l7.7 5.4 2.3-.6L16 0zM18.2 18.6l-2.3.6-4 12.8 5.2 12c2.8-1.6 9.1-5.2 12.1-6.9 0 0 0-.1.1-.2L18.2 18.6zM10.2 32.8.3 27.4c.8 2.3 2.1 6.2 3.2 9.7 3.7 2.2 8.8 5.1 11.4 6.6l-4.7-10.9zM33 25.6c-3.2-5-11.4-18-15-23.6l1.5 15.2 10.6 17.2c.9-2.8 2.5-7.4 2.9-8.8z" class="st1"/></svg>
