<svg xmlns="http://www.w3.org/2000/svg" xml:space="preserve" style="enable-background:new 0 0 134 43" viewBox="0 0 134 43"><path d="M41 13.2h14v3H44v8h9v3h-9v6h-3v-20zm21 0h-3v20h14v-3H62v-17zm15 0h-3l7 11v9h3v-9l7-11h-3l-5.5 8.6-5.5-8.6zm18 20v-20h3l12 16v-16h3v20h-3l-12-16v16h-3zm22-20h17v3h-7v17h-3v-17h-7v-3z" style="fill-rule:evenodd;clip-rule:evenodd;fill:#303030"/><path d="m12.5.1-7 14 6.6 6.6L14 20 12.5.1zM5.1 15 0 25.2l8.7 4.3 2.7-8.2L5.1 15zM.4 26.5 3 35.2l9.3 7.4-3.7-12-8.2-4.1zm13 16.4 9.2-7.3v-.1l-8.3-14.6-1.9.8-2.9 8.6 3.9 12.6zm9.8-8.3 2.8-9.3L13.6.4 15 20.1l8.2 14.5z" style="fill-rule:evenodd;clip-rule:evenodd;fill:#006ae5"/></svg>
