<svg xmlns="http://www.w3.org/2000/svg" xml:space="preserve" x="0" y="0" style="enable-background:new 0 0 375 110" version="1.1" viewBox="0 0 375 110"><style>.icon{fill:#006ae5}.text{fill:#303030}</style><path d="m30.7 54.5.7.2 9.7-2.4-7.9-52c-3.4 7.1-11 22.8-17.6 36.3l15.1 17.9zM42.4 55.7l-10.7 2.7-5.8 21.4 11.3 29.6c6.5-4.3 21.2-14.3 28.1-19L42.4 55.7zM22.5 81.2 0 68.1c1.2 4.2 4.4 15.3 7.4 25.1 8.9 5.7 21.1 13.6 26.2 16.8L22.5 81.2zM36.8 0l8 52.8 22.4 33.8c1.3-5.4 3.9-16.8 5-20.5C65.3 53.2 43.1 11.6 36.8 0zM22.8 77.1l5.4-19.9-14.4-17.1C8.4 49.5 3.2 59.4.7 64.3l22.1 12.8z" class="icon"/><path d="M100 91.1V25.3h42.1v8.4H110V54h28.6v8.3H110v28.8h-10zM154.9 91.1V25.2h9.9v57.3h30.4v8.6h-40.3zM215.7 91.1v-28l-22.6-37.9h10.7l16.9 29.3 16.6-29.3H248l-22.4 37.9V91l-9.9.1zM259.6 91.1V25.3h9.4l33.5 49.1V25.3h9.8v65.9h-8.7L269.4 41v50.1h-9.8zM345.3 91.1v-57h-20.9v-8.9H375v8.9h-19.9v57h-9.8z" class="text"/></svg>
