<svg version="1.1" id="Ebene_1" xmlns="http://www.w3.org/2000/svg" x="0" y="0" viewBox="0 0 385 98.5" xml:space="preserve"><style>.st0{fill:#e50069}</style><path class="st0" d="M76.9 11.7h20.5c11.4 0 21.1 4.2 21.1 17.5 0 12.9-10.1 18.5-21.1 18.5h-6.5v16.7h-14V11.7zm19.9 25c5.5 0 8.1-2.8 8.1-7.5s-2.9-6.5-8.1-6.5H91v14h5.8zM123.5 11.8c0-4.1 3.2-7 7.8-7s7.8 2.9 7.8 7-3.3 7-7.8 7-7.8-2.9-7.8-7zm.9 12.1h14v40.6h-14V23.9zM156.4 43.4l-11.5-19.5h15l2.9 5.7c1.1 2.3 2.2 4.7 3.2 7h.3c.7-2.3 1.7-4.7 2.4-7l2-5.7h14.5L173.6 45l12.2 19.5h-15l-3.2-5.7c-1.2-2.3-2.4-4.7-3.6-7h-.3c-.9 2.3-1.9 4.6-2.8 7l-2.3 5.7h-14.5l12.3-21.1zM205.7 22.9c12 0 17.7 8.8 17.7 19.7 0 2.4-.3 4.6-.6 5.5h-23.1c1.3 5.2 4.9 6.8 9.4 6.8 2.8 0 5.4-.8 8.3-2.4l4.5 8.3c-4.4 3.1-10.2 4.7-14.8 4.7-11.9 0-21-7.8-21-21.3.1-13.2 9.7-21.3 19.6-21.3zm5.9 16.7c0-3.4-1.3-6.2-5.5-6.2-3.1 0-5.7 1.7-6.5 6.2h12zM227.8 7.9h14v42.7c0 2.8 1.3 3.6 2.3 3.6.5 0 .8 0 1.5-.2l1.6 10.2c-1.5.6-3.7 1.1-6.8 1.1-9.4 0-12.5-6.2-12.5-15.3-.1.2-.1-42.1-.1-42.1zM254.9 51.2c3.7 2.8 7.1 4.1 9.9 4.1 2.9 0 4.1-.8 4.1-2.4 0-2.1-3.7-3.1-7.8-4.7-4.7-1.9-10.2-5.4-10.2-12 0-8 6.5-13.2 16.1-13.2 6.7 0 11.4 2.7 14.9 5.4l-6.2 8.3c-2.9-2.1-5.8-3.4-8.3-3.4-2.4 0-3.6.7-3.6 2.3 0 2.1 3.6 2.9 7.6 4.4 4.9 1.8 10.4 4.9 10.4 12.2 0 7.6-6 13.5-17.4 13.5-5.2 0-11.5-2.3-15.8-5.7l6.3-8.8zM307.9 38.2c-.3-2.9-2.1-4.2-5.7-4.2-2.9 0-6 1.1-10.2 3.4l-4.9-9.1c5.7-3.4 11.5-5.4 17.9-5.4 10.6 0 16.9 5.7 16.9 19v22.6h-11.4l-1-3.9h-.3c-3.3 2.9-6.8 4.9-11.2 4.9-7.6 0-12.2-5.8-12.2-12.5 0-8.5 6.5-13.2 22.1-14.8zm-5.1 16.5c2.3 0 3.6-1.1 5-2.8v-5.5c-6.7 1-8.8 3.1-8.8 5.4.1 1.9 1.4 2.9 3.8 2.9zM354.1 18.7c-1.3-.5-2.8-.8-4.1-.8-2.6 0-4.2 1.2-4.2 5v1h6.8v10.9h-6.8v29.7h-14V34.7h-5.4V24.3l5.4-.4v-.6c0-8.7 4.1-16.4 16.1-16.4 3.7 0 6.8.8 8.6 1.5l-2.4 10.3zM360.5 34.7h-5.4V24.3l6.2-.5 1.6-10.6h11.5v10.6h9.3v10.9h-9.3v13.9c0 4.5 2.3 5.9 4.9 5.9 1.3 0 2.6-.3 3.6-.7L385 64c-2.1.6-5.1 1.5-9.6 1.5-10.6 0-15-6.7-15-16.6V34.7zM41 70.3c-8.2-8.2-4.5-17.5 3.7-25.7l14.9-14.9L29.8 0 0 29.8l14.9 15c8.2 8.2 11.8 17.4 3.6 25.6-.1.1-.3.2-.4.3-6.4 6.4-6.4 16.7 0 23.1 6.4 6.4 16.7 6.4 23.1 0 6.4-6.4 6.4-16.7 0-23.1 0-.2-.1-.3-.2-.4"/><g><path d="M91 80.5h2.5v6.3h.1l5-6.3h2.7L97 85.9l5 8.5h-2.7l-3.8-6.5-2 2.5v4.1H91v-14zM108 83.7c2.6 0 5 2 5 5.5s-2.4 5.5-5 5.5-5-2-5-5.5 2.4-5.5 5-5.5zm0 8.9c1.5 0 2.5-1.4 2.5-3.5s-.9-3.5-2.5-3.5c-1.5 0-2.4 1.4-2.4 3.5-.1 2.1.9 3.5 2.4 3.5zM115.9 83.9h2l.2 1.4h.1c.9-.9 1.9-1.7 3.2-1.7 1.5 0 2.4.7 2.9 1.9 1-1.1 2-1.9 3.4-1.9 2.2 0 3.2 1.5 3.2 4.1v6.5h-2.5V88c0-1.7-.5-2.4-1.6-2.4-.7 0-1.4.4-2.2 1.3v7.3h-2.4V88c0-1.7-.5-2.4-1.6-2.4-.6 0-1.4.4-2.2 1.3v7.3H116c-.1.2-.1-10.3-.1-10.3zM134.3 83.9h2l.2 1.4h.1c.9-.9 1.9-1.7 3.2-1.7 1.5 0 2.4.7 2.9 1.9 1-1.1 2-1.9 3.4-1.9 2.2 0 3.2 1.5 3.2 4.1v6.5h-2.5V88c0-1.7-.5-2.4-1.6-2.4-.7 0-1.4.4-2.2 1.3v7.3h-2.4V88c0-1.7-.5-2.4-1.6-2.4-.6 0-1.4.4-2.2 1.3v7.3h-2.4c-.1.2-.1-10.3-.1-10.3zM152.7 83.9h2.4v6.2c0 1.7.5 2.4 1.6 2.4.9 0 1.5-.4 2.3-1.4V84h2.4v10.4h-2l-.2-1.5h-.1c-.9 1.1-1.9 1.8-3.4 1.8-2.2 0-3.2-1.5-3.2-4.1v-6.7zM165 83.9h2l.2 1.4h.1c.9-.9 2-1.7 3.4-1.7 2.2 0 3.2 1.5 3.2 4.1v6.5h-2.4V88c0-1.7-.5-2.4-1.6-2.4-.9 0-1.5.4-2.4 1.3v7.3H165V83.9zM177.1 80.7c0-.8.6-1.4 1.5-1.4s1.5.6 1.5 1.4c0 .8-.6 1.4-1.5 1.4-.8 0-1.5-.6-1.5-1.4zm.3 3.2h2.4v10.4h-2.4V83.9zM183.4 79.4h2.4v9.4h.1l3.9-4.8h2.7l-3.6 4.2 3.9 6.2h-2.7l-2.7-4.5-1.6 1.9v2.7h-2.4V79.4zM200.6 87.7c0-1.1-.5-2-1.9-2-1 0-2 .5-2.9 1l-.9-1.6c1.1-.7 2.6-1.4 4.3-1.4 2.6 0 3.9 1.6 3.9 4.5v6.2h-2l-.2-1.1h-.1c-.9.8-2 1.4-3.2 1.4-1.8 0-3.1-1.2-3.1-3.1-.1-2.3 1.8-3.4 6.1-3.9zm-2.3 5c.9 0 1.5-.4 2.3-1.1v-2.3c-2.8.4-3.8 1.1-3.8 2.1 0 .9.6 1.3 1.5 1.3zM206.7 85.9h-1.5V84l1.6-.1.3-2.8h2v2.8h2.7v1.9h-2.7v5c0 1.2.5 1.8 1.5 1.8.4 0 .8-.1 1.1-.2l.4 1.8c-.6.2-1.3.4-2.1.4-2.4 0-3.3-1.5-3.3-3.8v-4.9zM214.2 80.7c0-.8.6-1.4 1.5-1.4s1.5.6 1.5 1.4c0 .8-.6 1.4-1.5 1.4s-1.5-.6-1.5-1.4zm.3 3.2h2.4v10.4h-2.4V83.9zM224.8 83.7c2.6 0 5 2 5 5.5s-2.4 5.5-5 5.5-5-2-5-5.5 2.4-5.5 5-5.5zm0 8.9c1.5 0 2.5-1.4 2.5-3.5s-.9-3.5-2.5-3.5c-1.5 0-2.4 1.4-2.4 3.5-.1 2.1.8 3.5 2.4 3.5zM232.7 83.9h2l.2 1.4h.1c.9-.9 2-1.7 3.4-1.7 2.2 0 3.2 1.5 3.2 4.1v6.5h-2.4V88c0-1.7-.5-2.4-1.6-2.4-.9 0-1.5.4-2.4 1.3v7.3h-2.4c-.1.2-.1-10.3-.1-10.3zM244.5 96.9c1.4-.5 2.1-1.5 2.1-2.6h-.2c-.8 0-1.6-.6-1.6-1.5s.7-1.5 1.6-1.5c1.1 0 1.8.9 1.8 2.5 0 2.1-1.2 3.7-3.3 4.4l-.4-1.3zM259.1 83.7c1.2 0 1.9.4 2.7 1.1l-.1-1.7v-3.8h2.4v15h-2l-.2-1.1h-.1c-.8.8-1.8 1.4-3 1.4-2.6 0-4.3-2-4.3-5.5.2-3.3 2.3-5.4 4.6-5.4zm.5 8.9c.8 0 1.5-.4 2.2-1.2v-4.9c-.7-.6-1.4-.9-2.1-.9-1.3 0-2.4 1.3-2.4 3.4-.1 2.4.7 3.6 2.3 3.6zM267.5 80.7c0-.8.6-1.4 1.5-1.4s1.5.6 1.5 1.4c0 .8-.6 1.4-1.5 1.4s-1.5-.6-1.5-1.4zm.2 3.2h2.4v10.4h-2.4V83.9zM277.9 83.7c2.8 0 4.3 2 4.3 4.9 0 .5 0 .9-.1 1.1h-6.6c.2 1.9 1.4 3 3.1 3 .9 0 1.7-.3 2.4-.8l.8 1.5c-1 .7-2.2 1.1-3.6 1.1-2.9 0-5.1-2-5.1-5.5 0-3.2 2.3-5.3 4.8-5.3zm2.2 4.5c0-1.7-.7-2.7-2.1-2.7-1.2 0-2.3.9-2.5 2.7h4.6zM289 91.6c.9.7 1.8 1.2 2.9 1.2 1.1 0 1.7-.5 1.7-1.3 0-.9-1.1-1.3-2.2-1.7-1.4-.5-2.9-1.3-2.9-3 0-1.8 1.5-3.1 3.8-3.1 1.4 0 2.6.6 3.5 1.3l-1.1 1.5c-.7-.5-1.5-.9-2.3-.9-1 0-1.5.5-1.5 1.1 0 .8 1 1.1 2.2 1.6 1.4.5 3 1.2 3 3.2 0 1.8-1.4 3.2-4.1 3.2-1.4 0-2.9-.6-3.9-1.4l.9-1.7zM303.2 83.7c1.3 0 2.4.5 3.1 1.2l-1.2 1.6c-.6-.5-1.1-.8-1.8-.8-1.7 0-2.8 1.4-2.8 3.5s1.1 3.5 2.8 3.5c.8 0 1.6-.4 2.1-.9l1 1.6c-1 .9-2.2 1.3-3.4 1.3-2.8 0-5-2-5-5.5s2.4-5.5 5.2-5.5zM308.9 79.4h2.4v3.9l-.1 2c.9-.8 1.9-1.6 3.3-1.6 2.2 0 3.2 1.5 3.2 4.1v6.5h-2.4v-6.2c0-1.7-.5-2.4-1.6-2.4-.9 0-1.5.4-2.4 1.3v7.3h-2.4V79.4zM321.3 83.9h2l.2 1.4h.1c.9-.9 1.9-1.7 3.2-1.7 1.5 0 2.4.7 2.9 1.9 1-1.1 2-1.9 3.4-1.9 2.2 0 3.2 1.5 3.2 4.1v6.5h-2.5V88c0-1.7-.5-2.4-1.6-2.4-.7 0-1.4.4-2.2 1.3v7.3h-2.4V88c0-1.7-.5-2.4-1.6-2.4-.6 0-1.4.4-2.2 1.3v7.3h-2.4V83.9zM343.9 83.7c2.8 0 4.3 2 4.3 4.9 0 .5 0 .9-.1 1.1h-6.6c.2 1.9 1.4 3 3.1 3 .9 0 1.7-.3 2.4-.8l.8 1.5c-1 .7-2.2 1.1-3.6 1.1-2.9 0-5.1-2-5.1-5.5 0-3.2 2.3-5.3 4.8-5.3zm2.2 4.5c0-1.7-.7-2.7-2.1-2.7-1.2 0-2.3.9-2.5 2.7h4.6zM355.7 83.7c1.3 0 2.4.5 3.1 1.2l-1.2 1.6c-.6-.5-1.1-.8-1.8-.8-1.7 0-2.8 1.4-2.8 3.5s1.1 3.5 2.8 3.5c.8 0 1.6-.4 2.1-.9l1 1.6c-1 .9-2.2 1.3-3.4 1.3-2.8 0-5-2-5-5.5-.1-3.5 2.4-5.5 5.2-5.5zM361.4 79.4h2.4v9.4h.1l3.9-4.8h2.7l-3.6 4.2 3.9 6.2h-2.7l-2.7-4.5-1.6 1.9v2.7h-2.4V79.4zM373.7 85.9h-1.5V84l1.6-.1.3-2.8h2v2.8h2.7v1.9h-2.7v5c0 1.2.5 1.8 1.5 1.8.4 0 .8-.1 1.1-.2l.4 1.8c-.6.2-1.3.4-2.1.4-2.4 0-3.3-1.5-3.3-3.8v-4.9zM383.2 91.3c.9 0 1.6.7 1.6 1.7s-.7 1.7-1.6 1.7c-.9 0-1.6-.7-1.6-1.7s.8-1.7 1.6-1.7z"/></g></svg>