<svg width="1055" height="342" fill="none" xmlns="http://www.w3.org/2000/svg"><g clip-path="url(#a)"><path fill="#F0F6FD" d="M0 0h1055v342H0z"/><path fill="#006AE5" fill-opacity=".06" d="m107.175 172 73.958 151.609-217.175 105.943L-110 277.943zM114.953 20.98l79.76-115.419 121.586 84.023-79.76 115.419zM772.452 71.121l91.284-132.095 139.152 96.162-91.284 132.094z"/><path fill="#006AE5" fill-opacity=".05" d="M671.679 380.812 818.038 257.94l125.875 149.936-146.36 122.872z"/><path fill="#006AE5" fill-opacity=".06" d="M990.91 458.262 827.1 430.308l28.637-167.815 163.81 27.954z"/><path fill="#006AE5" fill-opacity=".05" d="m806.019-76.883 149.672-91.164 96.035 157.67-149.672 91.163z"/><path fill="#006AE5" fill-opacity=".06" d="M327.367 323.613 269.59 530.98 57.154 471.791l57.777-207.367z"/><path d="M219.473-80.38 73.741 232.998-116.65-160.78l336.123 80.4ZM942.293 228.174l35.702-277.428L1185.48 89.963 942.293 228.174Z" fill="#006AE5" fill-opacity=".05"/><g clip-path="url(#b)"><path d="m318.827 170.471.878.24 12.944-3.233-10.523-69.228c-4.562 9.418-14.686 30.277-23.425 48.356l20.14 23.865h-.014ZM334.377 172.107l-14.287 3.565-7.662 28.428 15.085 39.337c8.634-5.787 28.175-18.997 37.367-25.222l-30.489-46.121-.014.013ZM307.947 205.981l-29.944-17.36c1.649 5.574 5.906 20.42 9.804 33.39 11.852 7.556 28.068 18.026 34.826 22.322l-14.7-38.338.014-.014ZM327.009 98.027l10.682 70.239 29.731 44.951c1.689-7.25 5.188-22.349 6.624-27.258-9.218-17.227-38.723-72.46-47.037-87.932ZM308.333 200.578l7.143-26.499-19.155-22.708c-7.104 12.545-13.994 25.635-17.373 32.166l29.385 17.041Z" fill="#006AE5"/><path d="M412.626 219.218v-87.613h55.977l-.053 11.148h-42.715v27.085h37.992v11.028h-37.992v38.352h-13.209ZM485.644 219.218l.053-87.613h13.143v76.213h40.466v11.387h-53.675l.013.013ZM566.549 219.228v-37.195l-30.05-50.404h14.18l22.415 38.951 22.108-38.951h14.181L579.519 182.1v37.142h-12.97v-.014ZM624.987 219.218v-87.613h12.544l44.59 65.317v-65.317h13.023v87.613h-11.626l-45.561-66.647v66.647h-12.97ZM738.882 219.228v-75.786h-27.749v-11.813h67.31v11.813h-26.472v75.786h-13.089Z" fill="#303030"/></g></g><defs><clipPath id="a"><path fill="#fff" d="M0 0h1055v342H0z"/></clipPath><clipPath id="b"><path fill="#fff" transform="translate(278 98)" d="M0 0h500v146.291H0z"/></clipPath></defs></svg>