<svg id="a4fb5d00-dfdf-4d64-93ff-fdf3220c7ca7" data-name="_ico" xmlns="http://www.w3.org/2000/svg" width="100" height="40"><defs><style>.\34 e9b0a7c-9368-43a5-a019-f030c74cdb24{fill:url(#8d61f741-e8cc-4e87-bd09-c2c2443968cc)}.\34 7283e0a-bd9b-4cf2-8e8d-a1a7b52d773c{fill:#fefefe}</style><linearGradient id="8d61f741-e8cc-4e87-bd09-c2c2443968cc" x1="-94.29" y1="131.39" x2="-94.54" y2="131.39" gradientTransform="matrix(130 0 0 -80 12325 10531)" gradientUnits="userSpaceOnUse"><stop offset="0" stop-color="#d2be96"/><stop offset="1" stop-color="#fff0d2"/></linearGradient></defs><g id="f2d17394-f44f-4bdb-b9ca-f5e6ea4efef0" data-name="ico-logo-m-dfp"><path id="0ea25b68-e181-49de-9e1c-012a2d200055" data-name="Fill-1" class="4e9b0a7c-9368-43a5-a019-f030c74cdb24" d="M100 0H35v3h62v34H35v3h65V0z"/><path id="1a4331b8-31d0-4daf-9603-62558b74043a" data-name="Fill-2" class="47283e0a-bd9b-4cf2-8e8d-a1a7b52d773c" d="M1.33 16.62H3a5.57 5.57 0 0 0 1.6-.23 4 4 0 0 0 1.32-.69 3.29 3.29 0 0 0 .9-1.15A3.49 3.49 0 0 0 7.17 13 4.41 4.41 0 0 0 7 11.85a3.3 3.3 0 0 0-.57-1.2 3.34 3.34 0 0 0-1.17-1 4.21 4.21 0 0 0-1.94-.39h-2zM0 8h3.42a6.31 6.31 0 0 1 1.83.23 5.17 5.17 0 0 1 1.36.63 4.13 4.13 0 0 1 .95.91 4.54 4.54 0 0 1 .6 1.06A4.92 4.92 0 0 1 8.48 12a5.29 5.29 0 0 1 .1 1 5 5 0 0 1-.35 1.83 4.72 4.72 0 0 1-1 1.57 5.21 5.21 0 0 1-1.69 1.1 6 6 0 0 1-2.32.42H0z"/><path id="937e0f38-dc5c-4a64-9d4c-6441a8455b97" data-name="Fill-4" class="47283e0a-bd9b-4cf2-8e8d-a1a7b52d773c" d="M11.32 8.04h6.34v1.25h-5v2.92h4.59v1.34h-4.59v3.07h5.25v1.25h-6.59V8.04z"/><path id="760446ea-621c-4486-ba89-062702ed27f0" data-name="Fill-6" class="47283e0a-bd9b-4cf2-8e8d-a1a7b52d773c" d="M21.78 8v6a4 4 0 0 0 .12.95 2.6 2.6 0 0 0 .42.91 2.17 2.17 0 0 0 .76.68 2.29 2.29 0 0 0 1.16.27 2.33 2.33 0 0 0 1.17-.27 2.17 2.17 0 0 0 .76-.68 3 3 0 0 0 .42-.91 4 4 0 0 0 .12-.95V8H28v6.23a4.13 4.13 0 0 1-.29 1.56 3.55 3.55 0 0 1-2 2 4.13 4.13 0 0 1-3 0A3.58 3.58 0 0 1 21.5 17a3.75 3.75 0 0 1-.8-1.22 3.94 3.94 0 0 1-.29-1.56V8z"/><path id="d6d8d956-6e95-4437-adad-5cd59bf8f826" data-name="Fill-8" class="47283e0a-bd9b-4cf2-8e8d-a1a7b52d773c" d="M33.2 9.29h-3.16V8.04h7.65v1.25h-3.16v8.58H33.2V9.29z"/><path id="608d62ca-7ab3-475a-9a54-db7d22de115f" data-name="Fill-10" class="47283e0a-bd9b-4cf2-8e8d-a1a7b52d773c" d="M40.16 15.81a2.15 2.15 0 0 0 .92.8 2.76 2.76 0 0 0 1.16.26 2.29 2.29 0 0 0 .67-.11 2 2 0 0 0 .64-.31 1.87 1.87 0 0 0 .46-.51 1.39 1.39 0 0 0 .18-.71 1.07 1.07 0 0 0-.36-.87 3 3 0 0 0-.89-.5l-1.17-.39a4.51 4.51 0 0 1-1.16-.47 2.83 2.83 0 0 1-.9-.89 2.84 2.84 0 0 1-.36-1.53 2.65 2.65 0 0 1 .78-1.8 3.22 3.22 0 0 1 1-.67 3.86 3.86 0 0 1 1.52-.27 5.21 5.21 0 0 1 1.57.16 2.68 2.68 0 0 1 1.29.9l-1.08 1a1.89 1.89 0 0 0-.71-.63 2.21 2.21 0 0 0-1-.24 2.42 2.42 0 0 0-.92.15 1.58 1.58 0 0 0-.59.38 1.23 1.23 0 0 0-.31.49 1.49 1.49 0 0 0-.09.48 1.24 1.24 0 0 0 .36 1A2.72 2.72 0 0 0 42 12a10.05 10.05 0 0 0 1.17.38 5.4 5.4 0 0 1 1.16.46 2.65 2.65 0 0 1 .89.81 2.36 2.36 0 0 1 .36 1.39 2.93 2.93 0 0 1-.27 1.28 2.89 2.89 0 0 1-.72 1 3.29 3.29 0 0 1-1.09.6 4.08 4.08 0 0 1-1.33.21 4.86 4.86 0 0 1-1.78-.34 2.86 2.86 0 0 1-1.35-1z"/><path id="d6614601-b3c1-4653-855e-aae5004d278c" data-name="Fill-12" class="47283e0a-bd9b-4cf2-8e8d-a1a7b52d773c" d="M55.17 10.16a2.71 2.71 0 0 0-1.06-.83A3 3 0 0 0 52.8 9a3.52 3.52 0 0 0-1.51.31 3.59 3.59 0 0 0-1.15.85 4 4 0 0 0-.74 1.27 4.73 4.73 0 0 0-.26 1.57 4.3 4.3 0 0 0 .25 1.48 3.49 3.49 0 0 0 .72 1.22 3.33 3.33 0 0 0 1.15.83 3.78 3.78 0 0 0 1.54.31 3.05 3.05 0 0 0 1.48-.35 3.13 3.13 0 0 0 1.08-1l1.13.84a5.16 5.16 0 0 1-.39.44 4 4 0 0 1-.74.57 4.9 4.9 0 0 1-1.1.5 4.82 4.82 0 0 1-1.49.22 4.91 4.91 0 0 1-3.69-1.62 5 5 0 0 1-1-1.63 5.13 5.13 0 0 1-.36-1.81 5.72 5.72 0 0 1 .38-2.1 5 5 0 0 1 1-1.67 4.68 4.68 0 0 1 1.61-1.09 5.58 5.58 0 0 1 2.08-.38 5.11 5.11 0 0 1 1.91.37 3.57 3.57 0 0 1 1.53 1.15z"/><path id="e2d31fe9-5b96-42d8-bdf5-19a128297c35" data-name="Fill-14" class="47283e0a-bd9b-4cf2-8e8d-a1a7b52d773c" d="M58.7 8.04h1.51v4.08h5.58V8.04h1.51v9.83h-1.51v-4.5h-5.58v4.5H58.7V8.04z"/><path id="83190679-018d-4767-bd1c-f5afc2410e0b" data-name="Fill-16" class="47283e0a-bd9b-4cf2-8e8d-a1a7b52d773c" d="M69.61 8.04h6.34v1.25h-5.01v2.92h4.66v1.34h-4.66v3.07h5.26v1.25h-6.59V8.04z"/><path id="3a1e3e71-076d-476c-9917-46bfbe69e5a5" data-name="Fill-18" class="47283e0a-bd9b-4cf2-8e8d-a1a7b52d773c" d="M80 12.37h1.75a4 4 0 0 0 .77-.07 2.09 2.09 0 0 0 .68-.22 1.35 1.35 0 0 0 .47-.48 1.63 1.63 0 0 0 .18-.82 1.62 1.62 0 0 0-.15-.78 1.28 1.28 0 0 0-.47-.48 2.37 2.37 0 0 0-.68-.23 5 5 0 0 0-.77-.06H80zM78.7 8h3.45a4 4 0 0 1 1.55.25 2.71 2.71 0 0 1 1 .65 2.37 2.37 0 0 1 .49.89 3.64 3.64 0 0 1 .14.95 2.53 2.53 0 0 1-.17.91 2.51 2.51 0 0 1-.48.8 2.67 2.67 0 0 1-.76.59 2.71 2.71 0 0 1-1 .3l2.78 4.49H84l-2.5-4.34H80v4.34h-1.3z"/><path id="a627790c-779e-4d3b-8478-170d529353de" data-name="Fill-20" class="47283e0a-bd9b-4cf2-8e8d-a1a7b52d773c" d="M0 22.02h6.17v1.27H1.33v3.13h4.51v1.27H1.33V32H0v-9.98z"/><path id="7d32ea8f-afaf-4065-abfc-7155cb4334fd" data-name="Fill-22" class="47283e0a-bd9b-4cf2-8e8d-a1a7b52d773c" d="M8.5 31.84h1.6v-9.82H8.5v9.82z"/><path id="5adc7c7a-7577-40c9-9375-cf00ef5751e2" data-name="Fill-24" class="47283e0a-bd9b-4cf2-8e8d-a1a7b52d773c" d="M13.2 22.02h1.33v8.71h4.5V32H13.2v-9.98z"/><path id="e57cc6c6-748c-4aa5-8258-4dcfb372d9c6" data-name="Fill-25" class="47283e0a-bd9b-4cf2-8e8d-a1a7b52d773c" d="M21.4 22.02h1.98l3.12 7.56h.05l3.09-7.56h1.99V32H30.3v-8.2h-.03L26.95 32h-.88l-3.32-8.2h-.02V32H21.4v-9.98z"/><path id="f62baa22-a7ea-4c27-b196-1c30d8d8c923" data-name="Fill-26" class="47283e0a-bd9b-4cf2-8e8d-a1a7b52d773c" d="M35.83 26.42h1.75a5 5 0 0 0 .77-.06 2.11 2.11 0 0 0 .68-.24 1.28 1.28 0 0 0 .47-.48 2 2 0 0 0 0-1.65 1.38 1.38 0 0 0-.5-.49 2.1 2.1 0 0 0-.68-.23 5 5 0 0 0-.77-.06h-1.72zM34.5 22H38a4 4 0 0 1 1.55.26 2.74 2.74 0 0 1 1 .67 2.27 2.27 0 0 1 .49.9 3.65 3.65 0 0 1 .14 1 3.73 3.73 0 0 1-.14 1 2.34 2.34 0 0 1-.49.9 2.6 2.6 0 0 1-1 .66 3.83 3.83 0 0 1-1.55.21h-2.17V32H34.5z"/><path id="6f25f876-6273-4893-bbfa-b9e2d2e1efc1" data-name="Fill-27" class="47283e0a-bd9b-4cf2-8e8d-a1a7b52d773c" d="M44.93 26.42h1.75a5 5 0 0 0 .77-.06 2.11 2.11 0 0 0 .68-.24 1.28 1.28 0 0 0 .47-.48 2 2 0 0 0 0-1.65 1.38 1.38 0 0 0-.47-.49 2.1 2.1 0 0 0-.68-.23 5 5 0 0 0-.77-.06h-1.75zM43.6 22h3.45a4 4 0 0 1 1.55.26 2.74 2.74 0 0 1 1 .67 2.27 2.27 0 0 1 .49.9 3.65 3.65 0 0 1 .14 1 2.69 2.69 0 0 1-.17.93 2.62 2.62 0 0 1-.48.8 2.64 2.64 0 0 1-1.76.91L50.57 32h-1.66l-2.5-4.4h-1.48V32H43.6z"/><path id="7d787393-d6e9-4f9f-9276-78441dd967e2" data-name="Fill-28" class="47283e0a-bd9b-4cf2-8e8d-a1a7b52d773c" d="M52.96 22.02h6.34v1.27h-5v2.98h4.65v1.26H54.3v3.2h5.25V32h-6.59v-9.98z"/><path id="04a104bb-2c54-42f6-acda-e1794a11c798" data-name="Fill-29" class="47283e0a-bd9b-4cf2-8e8d-a1a7b52d773c" d="M62 32h1.6v-9.98H62V32z"/><path id="afdd19f3-33e6-4b4b-9578-d039ce065485" data-name="Fill-30" class="47283e0a-bd9b-4cf2-8e8d-a1a7b52d773c" d="M67.24 29.79a2.18 2.18 0 0 0 .92.79 2.8 2.8 0 0 0 1.16.26 2.33 2.33 0 0 0 .68-.1 2.08 2.08 0 0 0 .63-.32 1.61 1.61 0 0 0 .46-.51 1.36 1.36 0 0 0 .18-.71 1.06 1.06 0 0 0-.36-.86 2.91 2.91 0 0 0-.89-.5c-.36-.13-.74-.26-1.16-.39a4.74 4.74 0 0 1-1.17-.52 2.91 2.91 0 0 1-.89-.93 2.8 2.8 0 0 1-.36-1.52 2.68 2.68 0 0 1 .18-.92 2.78 2.78 0 0 1 .59-.88 3.29 3.29 0 0 1 1-.68 3.81 3.81 0 0 1 1.51-.27 5.22 5.22 0 0 1 1.58.27 2.55 2.55 0 0 1 1.29.9l-1.08 1a1.72 1.72 0 0 0-.71-.62 2.19 2.19 0 0 0-1-.24 2.46 2.46 0 0 0-.92.15 1.65 1.65 0 0 0-.59.37 1.44 1.44 0 0 0-.31.49 1.55 1.55 0 0 0-.09.49 1.25 1.25 0 0 0 .36 1 2.84 2.84 0 0 0 .9.54c.35.13.74.26 1.16.37a5.2 5.2 0 0 1 1.16.46 2.69 2.69 0 0 1 .9.81 2.36 2.36 0 0 1 .36 1.39 3 3 0 0 1-.27 1.28 2.75 2.75 0 0 1-.73 1 3.15 3.15 0 0 1-1.08.6 4.16 4.16 0 0 1-1.33.21 4.67 4.67 0 0 1-1.79-.34 2.92 2.92 0 0 1-1.34-1z"/></g></svg>