<svg id="67ec1fa0-53c5-490e-a645-460cba8131f2" data-name="_ico" xmlns="http://www.w3.org/2000/svg" width="120" height="40" fill="currentColor"><defs><style>.\39 7264e46-38ce-420c-be68-c7a0167cec2c{fill:currentColor}</style></defs><g id="0fae2628-55d8-43e8-a0b9-4b6a17dec39d" data-name="ico-logo-m-dfa"><path id="db28a967-e656-4784-b61a-703c3d24861b" data-name="Shape" class="97264e46-38ce-420c-be68-c7a0167cec2c" d="M0 .17h4.25a6.63 6.63 0 0 1 2 .32A5 5 0 0 1 8 1.47a4.71 4.71 0 0 1 1.23 1.65 5.55 5.55 0 0 1 .45 2.34 4.93 4.93 0 0 1-1.86 4 5.86 5.86 0 0 1-1.83 1 6.56 6.56 0 0 1-2 .33H0zm3.35 8.89A6.85 6.85 0 0 0 5 8.86a4 4 0 0 0 1.38-.63 2.93 2.93 0 0 0 .93-1.11 3.61 3.61 0 0 0 .33-1.65 4.2 4.2 0 0 0-.3-1.65 2.93 2.93 0 0 0-.78-1.12 3.78 3.78 0 0 0-1.27-.63 6.29 6.29 0 0 0-1.61-.2H1.93v7.19z"/><path id="6155d2c9-9b4e-46a9-8e3c-2331ca0607f5" data-name="Shape" class="97264e46-38ce-420c-be68-c7a0167cec2c" d="M11.95.17h7.09v1.7h-5.18v2.6h4.92v1.71h-4.92v2.87h5.45v1.71h-7.36V.17z"/><path id="0bf586e8-c2c4-4052-8623-dfa273573f7f" data-name="Shape" class="97264e46-38ce-420c-be68-c7a0167cec2c" d="M30.59 6.87a4.26 4.26 0 0 1-.33 1.73A3.89 3.89 0 0 1 28 10.73a5.15 5.15 0 0 1-3.4 0 4.26 4.26 0 0 1-1.37-.83 3.92 3.92 0 0 1-.91-1.3A4.46 4.46 0 0 1 22 6.89V.17h1.9v6.65a2.79 2.79 0 0 0 .12.81 2.36 2.36 0 0 0 .4.79 2.13 2.13 0 0 0 .74.59 3 3 0 0 0 2.3 0 2.13 2.13 0 0 0 .74-.59 2.36 2.36 0 0 0 .4-.79 2.79 2.79 0 0 0 .12-.81V.17h1.88z"/><path id="29eac3ec-825e-4cbc-811d-d8e6cb10c4bd" data-name="Shape" class="97264e46-38ce-420c-be68-c7a0167cec2c" d="M36.03 1.87h-3.28V.17h8.46v1.7h-3.27v8.9h-1.91v-8.9z"/><path id="392e9397-528a-4318-abbd-d0240ac2fa85" data-name="Shape" class="97264e46-38ce-420c-be68-c7a0167cec2c" d="M48.44 2.55a1.72 1.72 0 0 0-.81-.65 2.86 2.86 0 0 0-1.08-.19 2.81 2.81 0 0 0-.65.07 1.86 1.86 0 0 0-.56.24 1.27 1.27 0 0 0-.4.43 1.12 1.12 0 0 0-.15.62 1 1 0 0 0 .4.83 3.6 3.6 0 0 0 .93.49c.38.14.79.28 1.23.4a5.33 5.33 0 0 1 1.22.54 3.11 3.11 0 0 1 .93.91 2.63 2.63 0 0 1 .38 1.52 3.24 3.24 0 0 1-.33 1.49 3 3 0 0 1-.85 1.05 3.47 3.47 0 0 1-1.24.63 5.09 5.09 0 0 1-1.5.22 5.74 5.74 0 0 1-1.96-.33 3.59 3.59 0 0 1-1.58-1.11l1.43-1.37a2.48 2.48 0 0 0 .92.81 2.62 2.62 0 0 0 1.2.29 2.5 2.5 0 0 0 .66-.09 2 2 0 0 0 .6-.27 1.35 1.35 0 0 0 .44-.45 1.37 1.37 0 0 0 .21-.63 1.09 1.09 0 0 0-.38-.9 3.38 3.38 0 0 0-.94-.54c-.37-.14-.78-.28-1.22-.41a4.9 4.9 0 0 1-1.22-.53 3 3 0 0 1-.94-.9 2.6 2.6 0 0 1-.38-1.51 2.83 2.83 0 0 1 .33-1.42 3.15 3.15 0 0 1 .89-1 4.06 4.06 0 0 1 1.29-.6A5.89 5.89 0 0 1 46.76 0a5.35 5.35 0 0 1 1.64.25 4 4 0 0 1 1.43.84z"/><path id="2daeb6d8-dee1-4ae3-abcc-ecb21b36a586" data-name="Shape" class="97264e46-38ce-420c-be68-c7a0167cec2c" d="M59.74 2.76a3.05 3.05 0 0 0-1.14-.84 3 3 0 0 0-1.11-.21A3.73 3.73 0 0 0 56 2a3.34 3.34 0 0 0-1.15.81A3.82 3.82 0 0 0 54.09 4a4.44 4.44 0 0 0-.26 1.48 4.48 4.48 0 0 0 .26 1.58 3.75 3.75 0 0 0 .75 1.24 3.46 3.46 0 0 0 2.66 1.13 2.79 2.79 0 0 0 1.27-.3 3.57 3.57 0 0 0 1.14-1l1.57 1.11a4.29 4.29 0 0 1-1.77 1.44 5.65 5.65 0 0 1-2.22.45 6.33 6.33 0 0 1-2.28-.4 5.06 5.06 0 0 1-3-2.87 5.86 5.86 0 0 1-.42-2.27 6.06 6.06 0 0 1 .42-2.31 5.3 5.3 0 0 1 1.17-1.78A5.23 5.23 0 0 1 55.22.39 6.38 6.38 0 0 1 57.47 0a5.15 5.15 0 0 1 2 .38 4.74 4.74 0 0 1 1.73 1.3z"/><path id="66abb665-d674-4895-a50f-38651eae9bdd" data-name="Shape" class="97264e46-38ce-420c-be68-c7a0167cec2c" d="M63.58.17h1.9v4.22h5.01V.17h1.9v10.6h-1.9V6.1h-5.01v4.67h-1.9V.17z"/><path id="bd6839af-212c-4d59-8db2-0f86d0c1f65f" data-name="Shape" class="97264e46-38ce-420c-be68-c7a0167cec2c" d="M75.31.17h7.09v1.7h-5.19v2.6h4.92v1.71h-4.92v2.87h5.46v1.71h-7.36V.17z"/><path id="01c26ab3-b94e-4319-b6ef-643a1d22ac42" data-name="Shape" class="97264e46-38ce-420c-be68-c7a0167cec2c" d="M0 15h6.93v1.77h-5v2.88h4.72v1.76H2V26H0V15z"/><path id="a5d8f158-8f1c-420e-8a47-67440c7a37ad" data-name="Shape" class="97264e46-38ce-420c-be68-c7a0167cec2c" d="M9.56 15h1.91v10.98H9.56V15z"/><path id="4cb783bf-6d99-4b6d-8a98-bb7eba63f702" data-name="Shape" class="97264e46-38ce-420c-be68-c7a0167cec2c" d="M14.72 15h1.9v9.22h4.55v1.76h-6.45V15z"/><path id="d8623acb-2696-45cf-8887-a0a45575dcc5" data-name="Shape" class="97264e46-38ce-420c-be68-c7a0167cec2c" d="M23.51 15h2.9l2.86 7.7 2.89-7.7h2.87v10.98h-1.82v-9.12h-.02l-3.25 9.12h-1.33l-3.25-9.12h-.03v9.12h-1.82V15z"/><path id="49947d65-efd9-4cc2-a1af-df80f00ce2ab" data-name="Shape" class="97264e46-38ce-420c-be68-c7a0167cec2c" d="M41.83 15h1.64l4.61 11H45.9l-1-2.51h-4.62l-1 2.51h-2.12zm2.43 6.8l-1.64-4.47-1.68 4.47z"/><path id="c1c2015f-c1bc-47c1-b939-d9397ff2b366" data-name="Shape" class="97264e46-38ce-420c-be68-c7a0167cec2c" d="M49.66 15h1.91v4.65h.09L56.09 15h2.57l-5.01 5.07 5.34 5.91h-2.68l-4.64-5.39h-.1v5.39h-1.91V15z"/><path id="d3143bf8-c859-40d4-921e-8aa5b323d2de" data-name="Shape" class="97264e46-38ce-420c-be68-c7a0167cec2c" d="M64.74 15h1.64L71 26h-2.17l-1-2.51h-4.64l-1 2.51h-2.11zm2.42 6.79l-1.64-4.47-1.67 4.47z"/><path id="7eb02fd4-85bd-4a7f-977e-2e980acf90f1" data-name="Shape" class="97264e46-38ce-420c-be68-c7a0167cec2c" d="M72.57 15h4.22a6.15 6.15 0 0 1 2 .34 4.85 4.85 0 0 1 1.74 1 4.9 4.9 0 0 1 1.21 1.7 5.88 5.88 0 0 1 .45 2.42 5.13 5.13 0 0 1-1.86 4.17 5.77 5.77 0 0 1-1.83 1 6.32 6.32 0 0 1-2 .34h-4zm3.33 9.21a6 6 0 0 0 1.68-.21 3.85 3.85 0 0 0 1.42-.65 3.18 3.18 0 0 0 .93-1.15 4 4 0 0 0 .33-1.71 4.31 4.31 0 0 0-.31-1.7 2.94 2.94 0 0 0-.84-1.16 3.37 3.37 0 0 0-1.29-.63 5.52 5.52 0 0 0-1.61-.21h-1.74v7.45z"/><path id="03b80c6f-1e71-42f8-9cf4-d60fbb9236cb" data-name="Shape" class="97264e46-38ce-420c-be68-c7a0167cec2c" d="M84.42 15h7.09v1.77h-5.18v2.69h4.91v1.77h-4.91v2.98h5.45v1.76h-7.36V15z"/><path id="f6418612-c6e2-4b3f-b08a-4c6c2115f5c9" data-name="Shape" class="97264e46-38ce-420c-be68-c7a0167cec2c" d="M94.23 15h2.9l2.87 7.7 2.89-7.7h2.87v10.98h-1.82v-9.12h-.03l-3.25 9.12h-1.33l-3.26-9.12h-.03v9.12h-1.81V15z"/><path id="c39cacd5-ca65-479f-94fb-1dbdc1a703b9" data-name="Shape" class="97264e46-38ce-420c-be68-c7a0167cec2c" d="M108.29 15h1.9v10.98h-1.9V15z"/><path id="3bca1974-adbc-483e-908c-5430777213e0" data-name="Shape" class="97264e46-38ce-420c-be68-c7a0167cec2c" d="M112.69 15h7.08v1.77h-5.18v2.69h4.92v1.77h-4.92v2.98H120v1.76h-7.31V15z"/><path id="c127ed2e-eab1-43ba-81d4-34da51fdd400" data-name="Rectangle-path" class="97264e46-38ce-420c-be68-c7a0167cec2c" d="M0 30h35v10H0z"/></g></svg>