<svg id="stars-5-0-star" viewBox="0 0 102 18" width="100%" height="100%">
    <g fill="#e9ba26">
        <svg id="stars-all-star" viewBox="0 0 102 18" width="100%" height="100%">
        <g><svg id="stars-full-star" viewBox="0 0 102 18" width="100%" height="100%">
        <path d="M9.5 14.25l-5.584 2.936 1.066-6.218L.465 6.564l6.243-.907L9.5 0l2.792 5.657 6.243.907-4.517 4.404 1.066 6.218"></path>
        </svg></g>
        <g transform="translate(21)"><svg id="stars-full-star" viewBox="0 0 102 18" width="100%" height="100%">
        <path d="M9.5 14.25l-5.584 2.936 1.066-6.218L.465 6.564l6.243-.907L9.5 0l2.792 5.657 6.243.907-4.517 4.404 1.066 6.218"></path>
        </svg></g>
        <g transform="translate(42)"><svg id="stars-full-star" viewBox="0 0 102 18" width="100%" height="100%">
        <path d="M9.5 14.25l-5.584 2.936 1.066-6.218L.465 6.564l6.243-.907L9.5 0l2.792 5.657 6.243.907-4.517 4.404 1.066 6.218"></path>
        </svg></g>
        <g transform="translate(63)"><svg id="stars-full-star" viewBox="0 0 102 18" width="100%" height="100%">
        <path d="M9.5 14.25l-5.584 2.936 1.066-6.218L.465 6.564l6.243-.907L9.5 0l2.792 5.657 6.243.907-4.517 4.404 1.066 6.218"></path>
        </svg></g>
        <g transform="translate(84)"><svg id="stars-full-star" viewBox="0 0 102 18" width="100%" height="100%">
        <path d="M9.5 14.25l-5.584 2.936 1.066-6.218L.465 6.564l6.243-.907L9.5 0l2.792 5.657 6.243.907-4.517 4.404 1.066 6.218"></path>
        </svg></g>
        </svg>
    </g>
</svg>
