<?xml version="1.0" encoding="utf-8"?>
<!-- Generated by IcoMoon.io -->
<!DOCTYPE svg PUBLIC "-//W3C//DTD SVG 1.1//EN" "http://www.w3.org/Graphics/SVG/1.1/DTD/svg11.dtd">
<svg version="1.1" xmlns="http://www.w3.org/2000/svg" xmlns:xlink="http://www.w3.org/1999/xlink" width="63" height="64" viewBox="0 0 63 64">
	<path d="M39.632 39.203c-0.002 1.732-1.41 3.147-3.14 3.152-1.73-0.005-3.14-1.42-3.144-3.152v-0.358h-1.592v0.358c0 2.617 2.125 4.746 4.737 4.746 2.608 0 4.729-2.129 4.729-4.746h0v-0.358h-1.59v0.358z" />
	<path d="M39.731 28.774c0.464 0 0.798-0.387 0.798-0.799v-3.447c0-0.464-0.334-0.798-0.798-0.798-0.413 0-0.799 0.334-0.799 0.798v3.447c0 0.413 0.387 0.799 0.799 0.799z" />
	<path d="M55.125 0.626h-46.36c-4.543 0-8.238 3.697-8.238 8.24v46.356c0 4.545 3.695 8.24 8.238 8.24h46.36c4.543 0 8.238-3.695 8.238-8.24v-46.356c0-4.543-3.695-8.24-8.238-8.24zM7.367 12.454c3.278 2.954 8.001 0.59 8.928 0.075 2.38-1.321 4.703-1.657 6.909-1 2.622 0.779 4.328 2.78 5.121 3.919 0.152-0.019 0.303-0.036 0.453-0.036 1.366 0 2.715 0.788 4.584 1.875 0.504 0.295 1.045 0.609 1.633 0.938 0.384 0.211 0.827 0.919 0.753 1.336 0 0.005 0 0.012 0 0.017l-0.014 0.092c-0.042 0.578-0.409 0.958-1.113 1.163l-9.17 2.598c-0.007 0.002-0.699 0.23-1.267 0.23-0.208 0-0.305-0.031-0.337-0.044-0.573-0.245-0.907-0.665-1.006-1.21-0.024-0.125-0.048-0.249-0.044-0.389 0.039-2.143 1.058-4.115 2.712-5.352-0.646-0.801-1.723-1.856-3.175-2.281-1.401-0.411-2.945-0.157-4.59 0.755-1.077 0.598-5.981 3.037-10.376 0.891v-3.576zM40.807 52.888c-5.012-0.002-9.481-2.351-12.353-6.004h-10.974c-2.327 3.239-5.961 5.477-10.134 5.92v-28.576c4.159 0.44 7.781 2.664 10.112 5.886l2.468 0.002-0.002-2.46c0.002-1.481 0.528-2.835 1.398-3.9 0.372 0.707 0.987 1.272 1.827 1.631 0.302 0.119 0.641 0.177 1.036 0.177 0.74 0 1.493-0.21 1.797-0.305l9.172-2.598c1.693-0.493 2.233-1.621 2.406-2.381l2.976 1.18c0 0 3.423 0.344 4.735 0.648 5.896 1.367 11.252 7.935 11.252 15.067-0.003 8.68-7.036 15.711-15.716 15.713z" />
</svg>
